<svg xmlns="http://www.w3.org/2000/svg" viewBox="0 0 512 512" id="telescope">
  <path d="M352.619 475.698C350.078 471.907 348.384 467.175 346.358 463.065L329.316 427.787C328.676 426.495 328.109 424.1 327.113 423.177C326.755 422.847 269.177 423.024 262.081 423.043C261.894 424.793 262.285 426.625 262.338 428.375C262.624 437.875 263.023 447.362 263.016 456.861L263.096 488.314C263.166 493.511 264.202 500.961 256.18 501.309C247.215 501.697 247.638 493.179 247.627 487.314L247.465 422.947L180.929 422.843C179.816 423.94 179.369 425.565 178.676 426.961L159.423 466.013C157.203 470.707 155.517 478.839 149.396 479.794C147.323 480.118 145.073 479.85 143.375 478.523C136.936 473.49 142.52 466.216 145.189 460.842L197.497 353.313L231.426 268.485C232.123 266.522 237.094 252.504 236.753 251.686C236.602 251.323 235.124 250.428 234.731 250.135C217.797 237.526 215.765 221.43 228.416 204.497L220.379 200.425C216.596 198.675 211.348 197.51 208.368 194.56C206.484 192.695 206.267 188.885 203.907 187.858L174.806 176.133L62.5922 127.238C56.931 124.886 50.6334 122.726 45.4748 119.415L45.2122 119.243C35.7997 126.346 25.0791 122.837 23.0334 111.107C18.6377 85.903 44.6111 37.5719 64.2269 18.51C67.7986 15.0391 71.059 12.1741 76.0711 11.3225L76.3256 11.3003C84.4773 10.8471 89.0431 16.7623 89.3777 24.4367C94.6882 26.3714 99.8551 28.9998 105.031 31.283L249.694 96.4369L422.338 177.624C429.193 181.023 437.234 182.172 439.064 189.969C441.546 191.601 445.382 191.542 448.19 192.693C458.125 196.766 452.406 203.603 457.433 206.084L472.392 213.103C492.628 222.205 492.656 224.253 483.611 246.559L478.726 258.057C472.118 272.107 464.857 266.619 454.201 261.822L436.039 254.011C434.51 257.434 430.599 262.092 426.895 263.242C419.37 265.578 410.572 257.043 406.48 259.976C397.104 266.696 394.51 263.093 383.75 258.512L304.511 222.376C300.951 230.762 296.814 231.911 288.25 230.765L281.365 229.71L281.139 232.281C279.882 240.337 276.48 244.136 270.345 248.607C271.97 253.762 274.46 258.692 276.213 263.839L304.723 340.169L321.116 376.729L362.368 461.099C363.9 464.181 365.954 467.356 367.134 470.576C370.157 478.828 358.555 483.87 352.619 475.698ZM75.1964 28.375C62.2728 38.0534 45.6993 73.1415 40.9942 87.9132C40.2089 90.3783 35.3564 105.314 37.875 105.672C41.6872 103.031 45.1373 98.0726 47.8065 94.3246C56.5083 82.1061 76.5269 44.4935 75.6606 28.5431L75.1964 28.375ZM88.4724 40.2612C83.9662 64.8335 71.2679 87.9688 56.9276 108.159L209.519 173.808C216.461 157.808 221.165 148.828 239.407 157.054L277.87 175.468C287.089 179.865 297.277 183.741 305.735 189.488C317.808 197.691 310.564 206.931 311.246 208.84C311.276 208.925 314.322 210.387 314.639 210.545L378.935 239.669L398.046 247.517C409.627 229.54 417.266 215.504 423.692 194.765L346.422 157.483L123.473 55.6513L103.508 47.1313C98.4631 45.0566 93.1463 43.0844 88.4724 40.2612ZM228.123 169.145L221.029 183.306L235.145 191.079C237.971 192.741 239.926 194.541 243.275 194.628C252.625 194.87 259.828 194.833 268.455 199.679C274.644 203.155 280.4 207.773 282.096 214.901C282.699 217.433 287.674 216.652 289.902 216.266L290.125 216.224C293.019 214.816 294.944 208.422 295.918 205.578L297.19 201.79L228.123 169.145ZM435.931 204.467C433.36 213.156 429.939 221.663 426.076 229.854L422.385 237.353C421.045 239.854 418.581 243.13 418.025 245.883C419.105 246.382 420.194 246.978 421.359 247.238L421.875 246.991C429.056 239.901 440.418 216.554 440.004 207.766C439.971 207.068 438.923 206.389 438.375 205.991L435.931 204.467ZM248.793 210.308C227.891 214.318 234.893 243.24 253.818 240.055C273.202 234.869 269.542 208.112 248.793 210.308ZM452.154 220.005C450.639 225.642 446.945 235.914 443.629 240.959L465.49 250.361L474.042 230.687L452.154 220.005ZM260.869 265.625C260.748 270.643 261.63 275.61 261.74 280.616L261.824 312.75C261.889 314.984 262.308 317.2 262.368 319.457L262.422 402.196C262.421 403.817 262.126 406.107 262.562 407.64L319.764 407.712L288.908 342.323L264.094 276.243C263.022 272.839 262.3 268.848 260.869 265.625ZM246.794 268.151C244.208 278.424 240.178 288.609 236.578 298.526C226.892 325.203 215.534 351.257 203.364 376.887L188.254 407.25C188.748 407.565 188.871 407.487 189.438 407.489L246.993 407.72L246.794 268.151Z" fill="#ffffff" class="color000000 svgShape"></path>
  <path d="M252.064 233.996C237.915 234.414 237.664 217.128 250.344 215.071C262.933 214.147 264.739 231.336 252.064 233.996Z" fill="#ffffff" class="color000000 svgShape"></path>
</svg>
